<svg xmlns="http://www.w3.org/2000/svg" viewBox="0 0 512 512" width="512" height="512" role="img" aria-label="Feelings Quote logo">
  <defs>
    <linearGradient id="grad" x1="0" y1="0" x2="1" y2="1">
      <stop offset="0" stop-color="#7c3aed"/>
      <stop offset="0.55" stop-color="#db2777"/>
      <stop offset="1" stop-color="#f59e0b"/>
    </linearGradient>
  </defs>
  <rect width="512" height="512" rx="116" fill="url(#grad)"/>
  <g fill="#ffffff">
    <rect x="112" y="148" width="288" height="180" rx="46"/>
    <path d="M196 316 L168 398 L268 322 Z"/>
  </g>
  <path transform="translate(196 168) scale(1.2)" d="M50,88 C46,80 12,56 12,34 C12,20 24,12 35,12 C44,12 49,19 50,22 C51,19 56,12 65,12 C76,12 88,20 88,34 C88,56 54,80 50,88 Z" fill="url(#grad)"/>
</svg>
